<svg width="33" height="36" viewBox="0 0 33 36" fill="none" xmlns="http://www.w3.org/2000/svg">
<path fill-rule="evenodd" clip-rule="evenodd" d="M7.32216 8.16395C7.84286 7.58752 8.68708 7.58752 9.20778 8.16395L16.265 15.9765L23.3222 8.16395C23.8429 7.58752 24.6871 7.58752 25.2078 8.16395C25.7285 8.74038 25.7285 9.67496 25.2078 10.2514L18.1506 18.0639L25.2078 25.8765C25.7285 26.4529 25.7285 27.3875 25.2078 27.9639C24.6871 28.5404 23.8429 28.5404 23.3222 27.9639L16.265 20.1514L9.20778 27.9639C8.68708 28.5404 7.84286 28.5404 7.32216 27.9639C6.80147 27.3875 6.80147 26.4529 7.32216 25.8765L14.3794 18.0639L7.32216 10.2514C6.80147 9.67496 6.80147 8.74038 7.32216 8.16395Z" fill="#3F3F55"/>
</svg>
