<svg width="32" height="30" viewBox="0 0 32 30" fill="none" xmlns="http://www.w3.org/2000/svg">
<path fill-rule="evenodd" clip-rule="evenodd" d="M7.05654 6.54588C7.57724 6.06283 8.42146 6.06283 8.94216 6.54588L15.9993 13.0927L23.0565 6.54588C23.5772 6.06283 24.4215 6.06283 24.9422 6.54588C25.4629 7.02892 25.4629 7.81209 24.9422 8.29513L17.885 14.842L24.9422 21.3888C25.4629 21.8719 25.4629 22.655 24.9422 23.1381C24.4215 23.6211 23.5772 23.6211 23.0565 23.1381L15.9993 16.5912L8.94216 23.1381C8.42146 23.6211 7.57724 23.6211 7.05654 23.1381C6.53584 22.655 6.53584 21.8719 7.05654 21.3888L14.1137 14.842L7.05654 8.29513C6.53584 7.81209 6.53584 7.02892 7.05654 6.54588Z" fill="#3F3F55"/>
</svg>
