<svg width="32" height="37" viewBox="0 0 32 37" fill="none" xmlns="http://www.w3.org/2000/svg">
<path fill-rule="evenodd" clip-rule="evenodd" d="M7.05654 8.68339C7.57724 8.10554 8.42146 8.10554 8.94216 8.68339L15.9993 16.5152L23.0565 8.68339C23.5772 8.10554 24.4215 8.10554 24.9422 8.68339C25.4629 9.26124 25.4629 10.1981 24.9422 10.776L17.885 18.6077L24.9422 26.4395C25.4629 27.0174 25.4629 27.9542 24.9422 28.5321C24.4215 29.1099 23.5772 29.1099 23.0565 28.5321L15.9993 20.7003L8.94216 28.5321C8.42146 29.1099 7.57724 29.1099 7.05654 28.5321C6.53584 27.9542 6.53584 27.0174 7.05654 26.4395L14.1137 18.6077L7.05654 10.776C6.53584 10.1981 6.53584 9.26124 7.05654 8.68339Z" fill="#3F3F55"/>
</svg>
