<svg width="20" height="18" viewBox="0 0 20 18" fill="none" xmlns="http://www.w3.org/2000/svg">
<path fill-rule="evenodd" clip-rule="evenodd" d="M1.05654 0.804095C1.57724 0.32051 2.42146 0.32051 2.94216 0.804095L9.99935 7.35827L17.0565 0.804095C17.5772 0.32051 18.4215 0.32051 18.9422 0.804095C19.4629 1.28768 19.4629 2.07173 18.9422 2.55531L11.885 9.10949L18.9422 15.6637C19.4629 16.1472 19.4629 16.9313 18.9422 17.4149C18.4215 17.8985 17.5772 17.8985 17.0565 17.4149L9.99935 10.8607L2.94216 17.4149C2.42146 17.8985 1.57724 17.8985 1.05654 17.4149C0.535841 16.9313 0.535841 16.1472 1.05654 15.6637L8.11373 9.10949L1.05654 2.55531C0.535841 2.07173 0.535841 1.28768 1.05654 0.804095Z" fill="#3F3F55"/>
</svg>